# Blender v2.80 (sub 74) OBJ File: 'LaserRip.blend'
# www.blender.org
mtllib Lvl1Turret_Lightning.mtl
o Circle
v 2.182950 0.450523 -3.930830
v 2.195069 0.453596 -3.930830
v 2.203577 0.464318 -3.930830
v 2.205223 0.478594 -3.930830
v 2.199379 0.490971 -3.930830
v 2.188277 0.496721 -3.930830
v 2.176157 0.493648 -3.930830
v 2.167650 0.482926 -3.930830
v 2.166004 0.468650 -3.930830
v 2.171848 0.456273 -3.930830
v 2.298630 -0.538986 -3.527344
v 2.300276 -0.524710 -3.527344
v 2.294431 -0.512333 -3.527344
v 2.283329 -0.506583 -3.527344
v 2.271210 -0.509656 -3.527344
v 2.262703 -0.520378 -3.527344
v 2.261057 -0.534654 -3.527344
v 2.266901 -0.547031 -3.527344
v 2.278003 -0.552781 -3.527344
v 2.290122 -0.549708 -3.527344
v 3.276857 -0.263247 -2.626432
v 3.265755 -0.257497 -2.626432
v 3.253635 -0.260570 -2.626432
v 3.245128 -0.271292 -2.626432
v 3.243482 -0.285568 -2.626432
v 3.249326 -0.297945 -2.626432
v 3.260428 -0.303695 -2.626432
v 3.272547 -0.300622 -2.626432
v 3.281054 -0.289900 -2.626432
v 3.282701 -0.275624 -2.626432
v 3.387071 0.896678 -1.725520
v 3.378563 0.885955 -1.725520
v 3.376917 0.871679 -1.725520
v 3.382761 0.859303 -1.725520
v 3.393863 0.853552 -1.725520
v 3.405983 0.856625 -1.725520
v 3.414490 0.867347 -1.725520
v 3.416136 0.881623 -1.725520
v 3.410292 0.894000 -1.725520
v 3.399190 0.899750 -1.725520
v 2.476960 1.337812 -0.824608
v 2.482804 1.325435 -0.824608
v 2.493906 1.319685 -0.824608
v 2.506026 1.322758 -0.824608
v 2.514533 1.333480 -0.824608
v 2.516179 1.347756 -0.824608
v 2.510335 1.360133 -0.824608
v 2.499233 1.365883 -0.824608
v 2.487114 1.362810 -0.824608
v 2.478606 1.352088 -0.824608
v 1.804266 0.450523 0.076304
v 1.816386 0.453596 0.076304
v 1.824893 0.464318 0.076304
v 1.826539 0.478594 0.076304
v 1.820695 0.490971 0.076304
v 1.809593 0.496721 0.076304
v 1.797474 0.493648 0.076304
v 1.788966 0.482926 0.076304
v 1.787320 0.468650 0.076304
v 1.793164 0.456273 0.076304
v 2.298630 -0.538986 0.977216
v 2.300276 -0.524710 0.977216
v 2.294432 -0.512333 0.977216
v 2.283330 -0.506583 0.977216
v 2.271210 -0.509655 0.977216
v 2.262703 -0.520378 0.977216
v 2.261057 -0.534654 0.977216
v 2.266901 -0.547030 0.977216
v 2.278003 -0.552781 0.977216
v 2.290122 -0.549708 0.977216
v 3.276856 -0.263247 1.878128
v 3.265754 -0.257497 1.878128
v 3.253635 -0.260570 1.878128
v 3.245128 -0.271292 1.878128
v 3.243482 -0.285568 1.878128
v 3.249326 -0.297945 1.878128
v 3.260428 -0.303695 1.878128
v 3.272547 -0.300622 1.878128
v 3.281054 -0.289900 1.878128
v 3.282701 -0.275624 1.878128
v 3.387071 0.896678 2.779040
v 3.378563 0.885956 2.779040
v 3.376917 0.871680 2.779040
v 3.382761 0.859303 2.779040
v 3.393863 0.853553 2.779040
v 3.405983 0.856625 2.779040
v 3.414490 0.867348 2.779040
v 3.416136 0.881623 2.779040
v 3.410292 0.894000 2.779040
v 3.399190 0.899751 2.779040
v 2.476960 1.337812 3.679952
v 2.482804 1.325435 3.679952
v 2.493906 1.319685 3.679952
v 2.506025 1.322758 3.679952
v 2.514533 1.333480 3.679952
v 2.516179 1.347756 3.679952
v 2.510334 1.360133 3.679952
v 2.499233 1.365883 3.679952
v 2.487113 1.362810 3.679952
v 2.478606 1.352088 3.679952
v 1.804266 0.450523 4.580864
v 1.816386 0.453596 4.580864
v 1.824893 0.464318 4.580864
v 1.826539 0.478594 4.580864
v 1.820695 0.490971 4.580864
v 1.809593 0.496721 4.580864
v 1.797474 0.493648 4.580864
v 1.788966 0.482926 4.580864
v 1.787320 0.468650 4.580864
v 1.793164 0.456273 4.580864
v 2.298630 -0.538986 5.481777
v 2.300276 -0.524710 5.481777
v 2.294431 -0.512333 5.481777
v 2.283329 -0.506582 5.481777
v 2.271210 -0.509655 5.481777
v 2.262703 -0.520377 5.481777
v 2.261057 -0.534653 5.481777
v 2.266901 -0.547030 5.481777
v 2.278003 -0.552780 5.481777
v 2.290122 -0.549708 5.481777
v 3.276857 -0.263247 6.382689
v 3.265755 -0.257497 6.382689
v 3.253636 -0.260569 6.382689
v 3.245128 -0.271291 6.382689
v 3.243482 -0.285567 6.382689
v 3.249326 -0.297944 6.382689
v 3.260428 -0.303695 6.382689
v 3.272547 -0.300622 6.382689
v 3.281055 -0.289900 6.382689
v 3.282701 -0.275624 6.382689
v 3.387071 0.896679 7.283600
v 3.378563 0.885956 7.283600
v 3.376917 0.871681 7.283600
v 3.382761 0.859304 7.283600
v 3.393863 0.853553 7.283600
v 3.405982 0.856626 7.283600
v 3.414490 0.867348 7.283600
v 3.416136 0.881624 7.283600
v 3.410292 0.894001 7.283600
v 3.399190 0.899751 7.283600
v 2.476961 1.337813 8.184513
v 2.482805 1.325436 8.184513
v 2.493907 1.319685 8.184513
v 2.506026 1.322758 8.184513
v 2.514534 1.333480 8.184513
v 2.516180 1.347756 8.184513
v 2.510335 1.360133 8.184513
v 2.499234 1.365883 8.184513
v 2.487114 1.362811 8.184513
v 2.478607 1.352088 8.184513
v 1.804266 0.450524 9.085424
v 1.816386 0.453596 9.085424
v 1.824893 0.464319 9.085424
v 1.826539 0.478595 9.085424
v 1.820695 0.490971 9.085424
v 1.809593 0.496722 9.085424
v 1.797474 0.493649 9.085424
v 1.788966 0.482927 9.085424
v 1.787320 0.468651 9.085424
v 1.793164 0.456274 9.085424
v 2.298630 -0.538986 9.986338
v 2.300276 -0.524710 9.986338
v 2.294432 -0.512333 9.986338
v 2.283330 -0.506582 9.986338
v 2.271211 -0.509655 9.986338
v 2.262703 -0.520377 9.986338
v 2.261057 -0.534653 9.986338
v 2.266901 -0.547030 9.986338
v 2.278003 -0.552781 9.986338
v 2.290123 -0.549708 9.986338
v 3.276857 -0.263246 10.887251
v 3.265755 -0.257496 10.887251
v 3.253636 -0.260569 10.887251
v 3.245128 -0.271291 10.887251
v 3.243482 -0.285567 10.887251
v 3.249326 -0.297944 10.887251
v 3.260428 -0.303694 10.887251
v 3.272548 -0.300621 10.887251
v 3.281055 -0.289899 10.887251
v 3.282701 -0.275623 10.887251
v 3.387070 0.896679 11.788160
v 3.378563 0.885957 11.788160
v 3.376917 0.871681 11.788160
v 3.382761 0.859304 11.788160
v 3.393863 0.853554 11.788160
v 3.405982 0.856627 11.788160
v 3.414490 0.867349 11.788160
v 3.416136 0.881625 11.788160
v 3.410292 0.894002 11.788160
v 3.399190 0.899752 11.788160
v 2.476960 1.337813 12.689074
v 2.482804 1.325436 12.689074
v 2.493906 1.319685 12.689074
v 2.506026 1.322758 12.689074
v 2.514533 1.333480 12.689074
v 2.516179 1.347756 12.689074
v 2.510335 1.360133 12.689074
v 2.499233 1.365883 12.689074
v 2.487114 1.362811 12.689074
v 2.478606 1.352089 12.689074
v 1.804266 0.450523 13.589985
v 1.816386 0.453596 13.589985
v 1.824893 0.464318 13.589985
v 1.826539 0.478594 13.589985
v 1.820695 0.490971 13.589985
v 1.809593 0.496721 13.589985
v 1.797474 0.493648 13.589985
v 1.788966 0.482926 13.589985
v 1.787320 0.468650 13.589985
v 1.793164 0.456273 13.589985
vn 0.3920 -0.3110 -0.8658
vn 0.6070 0.2866 -0.7412
vn -0.1567 0.6179 -0.7705
vn -0.6846 0.0789 -0.7247
vn -0.2932 -0.5660 -0.7705
vn 0.5259 -0.4172 -0.7412
vn -0.1566 0.6179 -0.7705
vn 0.5258 -0.4173 -0.7412
vn 0.8818 -0.1016 -0.4605
vn 0.3685 0.7114 -0.5985
vn -0.6471 0.5134 -0.5637
vn -0.7469 -0.3527 -0.5637
vn 0.1969 -0.7766 -0.5985
vn 0.8329 -0.0960 -0.5450
vn -0.6471 0.5134 -0.5636
vn 0.6895 0.3255 0.6470
vn -0.2458 0.9693 0.0000
vn -0.9934 0.1145 0.0000
vn -0.4599 -0.8880 0.0000
vn 0.7834 -0.6216 -0.0000
vn 0.9043 0.4270 -0.0000
vn 0.7833 -0.6216 0.0000
vn 0.9043 0.4269 -0.0000
vn 0.7834 -0.6215 0.0000
vn 0.1977 0.3818 0.9028
vn -0.6471 0.5134 0.5637
vn -0.7469 -0.3527 0.5636
vn 0.1969 -0.7766 0.5985
vn 0.8329 -0.0960 0.5450
vn 0.3685 0.7114 0.5985
vn -0.7469 -0.3527 0.5637
vn 0.8330 -0.0960 0.5449
vn 0.3684 0.7114 0.5985
vn -0.0923 0.3640 0.9268
vn -0.6846 0.0789 0.7247
vn -0.2932 -0.5660 0.7705
vn 0.5259 -0.4173 0.7412
vn 0.6070 0.2866 0.7412
vn -0.1567 0.6179 0.7705
vn 0.5259 -0.4172 0.7412
vn -0.2931 -0.5660 0.7705
vn -0.1566 0.6179 0.7705
vn -0.3920 0.3110 0.8658
vn -0.6070 -0.2866 0.7412
vn 0.1567 -0.6179 0.7705
vn 0.6846 -0.0789 0.7247
vn 0.2932 0.5660 0.7705
vn -0.5259 0.4172 0.7412
vn 0.1566 -0.6179 0.7705
vn 0.2931 0.5660 0.7705
vn -0.8818 0.1017 0.4606
vn -0.3685 -0.7114 0.5985
vn 0.6471 -0.5134 0.5637
vn 0.7469 0.3527 0.5636
vn -0.1969 0.7766 0.5985
vn -0.8329 0.0961 0.5450
vn 0.7469 0.3527 0.5637
vn 0.6471 -0.5134 0.5636
vn -0.8329 0.0960 0.5450
vn -0.6895 -0.3255 -0.6470
vn 0.2458 -0.9693 -0.0000
vn 0.9934 -0.1146 -0.0000
vn 0.4599 0.8880 0.0000
vn -0.7834 0.6216 -0.0000
vn -0.9043 -0.4270 0.0000
vn 0.9934 -0.1145 0.0000
vn -0.1978 -0.3818 -0.9028
vn 0.6471 -0.5134 -0.5637
vn 0.7469 0.3527 -0.5636
vn -0.1969 0.7766 -0.5985
vn -0.8329 0.0960 -0.5450
vn -0.3684 -0.7114 -0.5985
vn 0.7469 0.3527 -0.5637
vn 0.0923 -0.3640 -0.9268
vn 0.6846 -0.0789 -0.7247
vn 0.2932 0.5660 -0.7705
vn -0.5259 0.4172 -0.7412
vn -0.6070 -0.2866 -0.7412
vn 0.1567 -0.6179 -0.7705
vn -0.5259 0.4173 -0.7412
vn 0.1566 -0.6179 -0.7705
vn 0.2933 0.5660 -0.7705
usemtl Material.003
s off
f 1//1 2//1 12//1 11//1
f 11//2 12//2 22//2 21//2
f 21//3 22//3 32//3 31//3
f 31//4 32//4 42//4 41//4
f 41//5 42//5 52//5 51//5
f 51//6 52//6 62//6 61//6
f 61//2 62//2 72//2 71//2
f 71//3 72//3 82//3 81//3
f 81//4 82//4 92//4 91//4
f 91//5 92//5 102//5 101//5
f 101//6 102//6 112//6 111//6
f 111//2 112//2 122//2 121//2
f 121//7 122//7 132//7 131//7
f 131//4 132//4 142//4 141//4
f 141//5 142//5 152//5 151//5
f 151//8 152//8 162//8 161//8
f 161//2 162//2 172//2 171//2
f 171//3 172//3 182//3 181//3
f 181//4 182//4 192//4 191//4
f 191//5 192//5 202//5 201//5
f 2//9 3//9 13//9 12//9
f 12//10 13//10 23//10 22//10
f 22//11 23//11 33//11 32//11
f 32//12 33//12 43//12 42//12
f 42//13 43//13 53//13 52//13
f 52//14 53//14 63//14 62//14
f 62//10 63//10 73//10 72//10
f 72//11 73//11 83//11 82//11
f 82//12 83//12 93//12 92//12
f 92//13 93//13 103//13 102//13
f 102//14 103//14 113//14 112//14
f 112//10 113//10 123//10 122//10
f 122//15 123//15 133//15 132//15
f 132//12 133//12 143//12 142//12
f 142//13 143//13 153//13 152//13
f 152//14 153//14 163//14 162//14
f 162//10 163//10 173//10 172//10
f 172//15 173//15 183//15 182//15
f 182//12 183//12 193//12 192//12
f 192//13 193//13 203//13 202//13
f 3//16 4//16 14//16 13//16
f 13//17 14//17 24//17 23//17
f 23//18 24//18 34//18 33//18
f 33//19 34//19 44//19 43//19
f 43//20 44//20 54//20 53//20
f 53//21 54//21 64//21 63//21
f 63//17 64//17 74//17 73//17
f 73//18 74//18 84//18 83//18
f 83//19 84//19 94//19 93//19
f 93//20 94//20 104//20 103//20
f 103//21 104//21 114//21 113//21
f 113//17 114//17 124//17 123//17
f 123//18 124//18 134//18 133//18
f 133//19 134//19 144//19 143//19
f 143//22 144//22 154//22 153//22
f 153//23 154//23 164//23 163//23
f 163//17 164//17 174//17 173//17
f 173//18 174//18 184//18 183//18
f 183//19 184//19 194//19 193//19
f 193//24 194//24 204//24 203//24
f 4//25 5//25 15//25 14//25
f 14//26 15//26 25//26 24//26
f 24//27 25//27 35//27 34//27
f 34//28 35//28 45//28 44//28
f 44//29 45//29 55//29 54//29
f 54//30 55//30 65//30 64//30
f 64//26 65//26 75//26 74//26
f 74//31 75//31 85//31 84//31
f 84//28 85//28 95//28 94//28
f 94//32 95//32 105//32 104//32
f 104//33 105//33 115//33 114//33
f 114//26 115//26 125//26 124//26
f 124//31 125//31 135//31 134//31
f 134//28 135//28 145//28 144//28
f 144//32 145//32 155//32 154//32
f 154//30 155//30 165//30 164//30
f 164//26 165//26 175//26 174//26
f 174//31 175//31 185//31 184//31
f 184//28 185//28 195//28 194//28
f 194//29 195//29 205//29 204//29
f 5//34 6//34 16//34 15//34
f 15//35 16//35 26//35 25//35
f 25//36 26//36 36//36 35//36
f 35//37 36//37 46//37 45//37
f 45//38 46//38 56//38 55//38
f 55//39 56//39 66//39 65//39
f 65//35 66//35 76//35 75//35
f 75//36 76//36 86//36 85//36
f 85//40 86//40 96//40 95//40
f 95//38 96//38 106//38 105//38
f 105//39 106//39 116//39 115//39
f 115//35 116//35 126//35 125//35
f 125//41 126//41 136//41 135//41
f 135//37 136//37 146//37 145//37
f 145//38 146//38 156//38 155//38
f 155//42 156//42 166//42 165//42
f 165//35 166//35 176//35 175//35
f 175//36 176//36 186//36 185//36
f 185//37 186//37 196//37 195//37
f 195//38 196//38 206//38 205//38
f 6//43 7//43 17//43 16//43
f 16//44 17//44 27//44 26//44
f 26//45 27//45 37//45 36//45
f 36//46 37//46 47//46 46//46
f 46//47 47//47 57//47 56//47
f 56//48 57//48 67//48 66//48
f 66//44 67//44 77//44 76//44
f 76//45 77//45 87//45 86//45
f 86//46 87//46 97//46 96//46
f 96//47 97//47 107//47 106//47
f 106//48 107//48 117//48 116//48
f 116//44 117//44 127//44 126//44
f 126//49 127//49 137//49 136//49
f 136//46 137//46 147//46 146//46
f 146//47 147//47 157//47 156//47
f 156//48 157//48 167//48 166//48
f 166//44 167//44 177//44 176//44
f 176//45 177//45 187//45 186//45
f 186//46 187//46 197//46 196//46
f 196//50 197//50 207//50 206//50
f 7//51 8//51 18//51 17//51
f 17//52 18//52 28//52 27//52
f 27//53 28//53 38//53 37//53
f 37//54 38//54 48//54 47//54
f 47//55 48//55 58//55 57//55
f 57//56 58//56 68//56 67//56
f 67//52 68//52 78//52 77//52
f 77//53 78//53 88//53 87//53
f 87//57 88//57 98//57 97//57
f 97//55 98//55 108//55 107//55
f 107//56 108//56 118//56 117//56
f 117//52 118//52 128//52 127//52
f 127//58 128//58 138//58 137//58
f 137//57 138//57 148//57 147//57
f 147//55 148//55 158//55 157//55
f 157//59 158//59 168//59 167//59
f 167//52 168//52 178//52 177//52
f 177//53 178//53 188//53 187//53
f 187//57 188//57 198//57 197//57
f 197//55 198//55 208//55 207//55
f 8//60 9//60 19//60 18//60
f 18//61 19//61 29//61 28//61
f 28//62 29//62 39//62 38//62
f 38//63 39//63 49//63 48//63
f 48//64 49//64 59//64 58//64
f 58//65 59//65 69//65 68//65
f 68//61 69//61 79//61 78//61
f 78//62 79//62 89//62 88//62
f 88//63 89//63 99//63 98//63
f 98//64 99//64 109//64 108//64
f 108//65 109//65 119//65 118//65
f 118//61 119//61 129//61 128//61
f 128//66 129//66 139//66 138//66
f 138//63 139//63 149//63 148//63
f 148//64 149//64 159//64 158//64
f 158//65 159//65 169//65 168//65
f 168//61 169//61 179//61 178//61
f 178//62 179//62 189//62 188//62
f 188//63 189//63 199//63 198//63
f 198//64 199//64 209//64 208//64
f 9//67 10//67 20//67 19//67
f 19//68 20//68 30//68 29//68
f 29//69 30//69 40//69 39//69
f 39//70 40//70 50//70 49//70
f 49//71 50//71 60//71 59//71
f 59//72 60//72 70//72 69//72
f 69//68 70//68 80//68 79//68
f 79//73 80//73 90//73 89//73
f 89//70 90//70 100//70 99//70
f 99//71 100//71 110//71 109//71
f 109//72 110//72 120//72 119//72
f 119//68 120//68 130//68 129//68
f 129//73 130//73 140//73 139//73
f 139//70 140//70 150//70 149//70
f 149//71 150//71 160//71 159//71
f 159//72 160//72 170//72 169//72
f 169//68 170//68 180//68 179//68
f 179//73 180//73 190//73 189//73
f 189//70 190//70 200//70 199//70
f 199//71 200//71 210//71 209//71
f 10//74 1//74 11//74 20//74
f 20//75 11//75 21//75 30//75
f 30//76 21//76 31//76 40//76
f 40//77 31//77 41//77 50//77
f 50//78 41//78 51//78 60//78
f 60//79 51//79 61//79 70//79
f 70//75 61//75 71//75 80//75
f 80//76 71//76 81//76 90//76
f 90//77 81//77 91//77 100//77
f 100//78 91//78 101//78 110//78
f 110//79 101//79 111//79 120//79
f 120//75 111//75 121//75 130//75
f 130//76 121//76 131//76 140//76
f 140//80 131//80 141//80 150//80
f 150//78 141//78 151//78 160//78
f 160//81 151//81 161//81 170//81
f 170//75 161//75 171//75 180//75
f 180//82 171//82 181//82 190//82
f 190//77 181//77 191//77 200//77
f 200//78 191//78 201//78 210//78
