# Blender v2.80 (sub 74) OBJ File: 'LaserRip.blend'
# www.blender.org
mtllib Lvl1Turret_BaseBottom.mtl
o Cube
v 2.662344 -2.211783 -3.047118
v 2.662344 -1.888903 -2.772919
v 5.301225 -2.211783 -1.523559
v 5.063762 -1.888903 -1.386459
v 5.301225 -2.211783 1.523559
v 5.063762 -1.888903 1.386460
v 2.662343 -2.211783 3.047118
v 2.662343 -1.888903 2.772919
v 0.023462 -2.211783 1.523558
v 0.260925 -1.888903 1.386459
v 0.023462 -2.211783 -1.523559
v 0.260925 -1.888903 -1.386459
v 5.301225 -1.888903 -1.523559
v 2.662344 -1.888903 -3.047118
v 5.301225 -1.888903 1.523559
v 2.662343 -1.888903 3.047118
v 0.023462 -1.888903 1.523558
v 0.023462 -1.888903 -1.523559
v 4.793276 -1.524852 -1.230294
v 2.662344 -1.524852 -2.460589
v 4.793276 -1.524852 1.230295
v 2.662343 -1.524852 2.460589
v 0.531410 -1.524852 1.230294
v 0.531410 -1.524852 -1.230294
v 5.063762 -1.757139 -1.386459
v 2.662344 -1.757139 -2.772919
v 5.063762 -1.757139 1.386460
v 2.662343 -1.757139 2.772919
v 0.260925 -1.757139 1.386459
v 0.260925 -1.757139 -1.386459
vt 1.000000 0.500000
vt 1.000000 1.000000
vt 0.833333 1.000000
vt 0.833333 0.500000
vt 0.666667 1.000000
vt 0.666667 0.500000
vt 0.500000 1.000000
vt 0.500000 0.500000
vt 0.333333 1.000000
vt 0.333333 0.500000
vt 0.060857 0.359202
vt 0.060857 0.140798
vt 0.060857 0.140798
vt 0.060857 0.359202
vt 0.166667 1.000000
vt 0.166667 0.500000
vt -0.000000 1.000000
vt -0.000000 0.500000
vt 0.750000 0.490000
vt 0.957846 0.370000
vt 0.957846 0.130000
vt 0.750000 0.010000
vt 0.542154 0.130000
vt 0.542154 0.370000
vt 0.250000 0.468403
vt 0.439143 0.359202
vt 0.457846 0.370000
vt 0.250000 0.490000
vt 0.439143 0.140798
vt 0.457846 0.130000
vt 0.250000 0.031597
vt 0.250000 0.010000
vt 0.042154 0.130000
vt 0.042154 0.370000
vt 0.417839 0.346902
vt 0.250000 0.443803
vt 0.082161 0.346902
vt 0.082161 0.153098
vt 0.250000 0.056197
vt 0.417839 0.153098
vt 0.439143 0.140798
vt 0.250000 0.031597
vt 0.250000 0.468403
vt 0.439143 0.359202
vn 0.5000 0.0000 -0.8660
vn 1.0000 0.0000 0.0000
vn 0.5000 0.0000 0.8660
vn -0.5000 0.0000 0.8660
vn -1.0000 0.0000 0.0000
vn -0.5000 0.0000 -0.8660
vn 0.0000 -1.0000 0.0000
vn 0.0000 1.0000 0.0000
vn 0.3258 0.7586 -0.5642
vn 0.6515 0.7586 0.0000
vn 0.3258 0.7586 0.5642
vn -0.3258 0.7586 0.5642
vn -0.6515 0.7586 0.0000
vn -0.3258 0.7586 -0.5642
usemtl Material.005
s off
f 1/1/1 14/2/1 13/3/1 3/4/1
f 3/4/2 13/3/2 15/5/2 5/6/2
f 5/6/3 15/5/3 16/7/3 7/8/3
f 7/8/4 16/7/4 17/9/4 9/10/4
f 12/11/5 10/12/5 29/13/5 30/14/5
f 9/10/5 17/9/5 18/15/5 11/16/5
f 11/16/6 18/15/6 14/17/6 1/18/6
f 1/19/7 3/20/7 5/21/7 7/22/7 9/23/7 11/24/7
f 2/25/8 4/26/8 13/27/8 14/28/8
f 4/26/8 6/29/8 15/30/8 13/27/8
f 6/29/8 8/31/8 16/32/8 15/30/8
f 8/31/8 10/12/8 17/33/8 16/32/8
f 10/12/8 12/11/8 18/34/8 17/33/8
f 12/11/8 2/25/8 14/28/8 18/34/8
f 19/35/8 20/36/8 24/37/8 23/38/8 22/39/8 21/40/8
f 8/31/3 6/29/3 27/41/3 28/42/3
f 4/26/1 2/25/1 26/43/1 25/44/1
f 2/25/6 12/11/6 30/14/6 26/43/6
f 10/12/4 8/31/4 28/42/4 29/13/4
f 6/29/2 4/26/2 25/44/2 27/41/2
f 20/36/9 19/35/9 25/44/9 26/43/9
f 19/35/10 21/40/10 27/41/10 25/44/10
f 21/40/11 22/39/11 28/42/11 27/41/11
f 22/39/12 23/38/12 29/13/12 28/42/12
f 23/38/13 24/37/13 30/14/13 29/13/13
f 24/37/14 20/36/14 26/43/14 30/14/14
