# Blender v2.80 (sub 74) OBJ File: 'LaserRip.blend'
# www.blender.org
mtllib Lvl1LaserTurret_Barrel.mtl
o Plane.001_Plane.003
v 3.067314 0.994226 3.587172
v 3.153835 0.721573 3.872615
v 3.067314 0.959246 -3.994347
v 3.221826 0.685893 -4.261600
v 3.039747 -0.105357 3.572434
v 3.153835 0.170810 3.854479
v 3.039747 -0.164261 -4.008938
v 3.153835 0.105762 -4.279554
v 3.153835 0.132262 -2.651134
v 3.153835 0.703733 -2.669178
v 3.153835 0.691315 -3.182045
v 3.153835 0.130672 -3.176754
v 3.311363 0.419542 -3.179399
v 2.298336 0.994226 3.587172
v 2.298336 0.959246 -3.994347
v 2.168554 0.722559 3.869366
v 2.285665 -0.105357 3.572434
v 2.285665 -0.164261 -4.008938
v 2.171577 0.161616 3.857541
v 2.105600 0.702347 -4.258297
v 3.067314 0.976736 -2.762680
v 2.171577 0.102356 -4.274536
v 3.039747 -0.134809 -2.843328
v 2.171073 0.705330 -2.679797
v 2.172332 0.694171 -3.184113
v 2.171577 0.128814 -3.179066
v 2.000383 0.411493 -3.181589
v 2.171577 0.129874 -2.652235
v 2.285665 -0.134809 -2.847408
v 3.153835 0.712653 3.278082
v 3.153835 0.151536 3.340462
v 3.153835 0.708193 2.752363
v 3.153835 0.141899 2.814301
v 3.153835 0.705963 2.211224
v 3.153835 0.137081 2.282797
v 3.153835 0.704848 1.687460
v 3.153835 0.135876 1.733260
v 3.153835 0.704290 1.149921
v 3.153835 0.135274 1.197177
v 3.153835 0.704012 0.632566
v 3.153835 0.134672 0.661094
v 3.153835 0.703872 0.072020
v 3.153835 0.133467 0.136788
v 3.153835 0.703803 -0.450515
v 3.153835 0.132865 -0.461745
v 3.153835 0.703768 -1.041278
v 3.153835 0.132564 -0.973460
v 3.153835 0.703750 -1.556756
v 3.153835 0.132413 -1.575701
v 3.153835 0.703741 -2.164371
v 3.153835 0.132338 -2.083730
v 3.316392 0.418635 -0.156863
v 3.316392 0.420083 1.441591
v 3.316392 0.419643 0.914871
v 3.316392 0.423931 2.512762
v 3.316392 0.420964 1.985128
v 3.316392 0.441731 3.566280
v 3.316392 0.429864 3.046412
v 3.316392 0.418316 -0.751512
v 3.316392 0.418157 -1.265108
v 3.316392 0.419272 0.366556
v 3.316392 0.418077 -1.870035
v 3.316392 0.418035 -2.376454
v 2.171577 0.145745 2.764086
v 2.171577 0.153680 3.310814
v 2.169814 0.713944 3.320389
v 2.170443 0.709637 2.756487
v 2.170758 0.707483 2.224201
v 2.171577 0.137810 2.230791
v 2.171577 0.146053 1.712587
v 2.170916 0.706406 1.675363
v 2.170994 0.705868 1.153049
v 2.171577 0.137964 1.150030
v 2.171577 0.133919 0.578117
v 2.171577 0.131897 0.075408
v 2.171577 0.130885 -0.500772
v 2.171033 0.705599 0.616525
v 2.171053 0.705464 0.076556
v 2.171063 0.705397 -0.467576
v 2.171577 0.130380 -1.008670
v 2.171068 0.705363 -0.999746
v 2.171577 0.130127 -1.555694
v 2.171071 0.705346 -1.548528
v 2.171577 0.130001 -2.103965
v 2.171072 0.705338 -2.108057
v 2.024034 0.417745 -1.277720
v 2.024017 0.418748 0.345966
v 2.024035 0.417674 -1.826246
v 2.024032 0.417888 -0.738123
v 2.024036 0.417606 -2.380146
v 2.023997 0.419894 0.865583
v 2.024027 0.418175 -0.212109
v 2.023958 0.422185 1.412696
v 2.023407 0.429845 3.042237
v 2.023879 0.426768 1.968394
v 2.022777 0.438120 3.590090
v 2.023722 0.423723 2.493639
v 2.661195 0.918074 3.872859
v 2.661195 0.722066 3.870991
v 3.346737 0.417998 -2.660156
v 1.995121 0.417602 -2.666016
vt 0.000000 0.000000
vt 0.000000 0.000000
vt 0.000000 0.000000
vt 0.000000 0.000000
vt 0.000000 0.000000
vt 0.000000 0.000000
vt 0.000000 0.000000
vt 0.000000 0.000000
vt 0.000000 0.000000
vt 0.000000 0.000000
vt 0.000000 0.000000
vt 0.000000 0.000000
vt 0.000000 0.000000
vt 0.000000 0.000000
vt 0.000000 0.000000
vt 0.000000 0.000000
vt 0.000000 0.000000
vt 0.000000 0.000000
vt 0.000000 0.000000
vt 0.000000 0.000000
vt 0.000000 0.000000
vt 0.000000 0.000000
vt 0.000000 0.000000
vt 0.000000 0.000000
vt 0.000000 0.000000
vt 1.000000 0.000000
vt 1.000000 1.000000
vt 1.000000 1.000000
vt 0.000000 0.000000
vt 0.000000 0.000000
vt 1.000000 0.000000
vt 0.000000 0.000000
vt 1.000000 0.000000
vt 1.000000 1.000000
vt 1.000000 1.000000
vt 0.000000 0.000000
vt 1.000000 1.000000
vt 0.000000 0.000000
vt 0.000000 0.000000
vt 0.000000 0.000000
vt 0.000000 0.000000
vt 0.000000 0.000000
vt 0.000000 0.000000
vt 0.000000 0.000000
vt 0.000000 0.000000
vt 0.000000 0.000000
vt 0.000000 0.000000
vt 0.000000 0.000000
vt 0.000000 0.000000
vt 0.000000 0.000000
vt 0.000000 0.000000
vt 0.000000 0.000000
vt 0.000000 0.000000
vt 0.000000 0.000000
vt 0.000000 0.000000
vt 0.000000 0.000000
vt 0.000000 0.000000
vt 0.000000 0.000000
vt 0.000000 0.000000
vt 0.000000 0.000000
vt 0.000000 0.000000
vt 0.000000 0.000000
vt 0.000000 0.000000
vt 0.000000 0.000000
vt 0.000000 0.000000
vt 0.000000 0.000000
vt 0.000000 0.000000
vt 0.000000 0.000000
vt 0.000000 0.000000
vt 0.000000 0.000000
vt 0.000000 0.000000
vt 0.000000 0.000000
vt 0.000000 0.000000
vt 0.000000 0.000000
vt 0.000000 0.000000
vt 0.000000 0.000000
vt 0.000000 0.000000
vt 0.000000 0.000000
vt 0.000000 0.000000
vt 0.000000 0.000000
vt 0.000000 0.000000
vt 0.000000 0.000000
vt 0.000000 0.000000
vt 0.000000 0.000000
vt 0.000000 0.000000
vt 0.000000 0.000000
vt 0.000000 0.000000
vt 0.000000 0.000000
vt 0.000000 0.000000
vt 0.000000 0.000000
vt 0.000000 0.000000
vt 0.000000 0.000000
vt 0.000000 0.000000
vt 0.000000 0.000000
vt 0.000000 0.000000
vt 0.000000 0.000000
vt 0.000000 0.000000
vt 0.000000 0.000000
vt 0.000000 0.000000
vt 0.000000 0.000000
vt 0.000000 0.000000
vt 0.000000 0.000000
vt 0.000000 0.000000
vt 0.000000 0.000000
vt 0.000000 0.000000
vt 0.000000 0.000000
vt 0.000000 0.000000
vt 0.000000 0.000000
vt 0.000000 0.000000
vn -0.0062 0.8793 0.4763
vn -0.0027 0.8825 0.4703
vn -0.0069 -0.8619 0.5070
vn 0.0045 -0.8730 0.4877
vn 0.9242 -0.3818 0.0086
vn 0.9910 -0.1181 0.0630
vn 0.8779 -0.4787 0.0108
vn 0.8652 0.5014 -0.0121
vn 0.8779 -0.4788 0.0014
vn -0.0154 0.9999 -0.0046
vn 0.2931 0.7342 0.6124
vn -0.3027 0.7524 0.5851
vn -0.0001 -0.9997 0.0253
vn 0.0089 -0.7163 0.6978
vn 0.0000 -0.7299 0.6835
vn 0.0000 0.6991 -0.7150
vn 0.0084 0.7135 -0.7006
vn -0.9159 0.4012 -0.0112
vn -0.9031 0.4294 -0.0020
vn 0.8909 0.4509 0.0538
vn 0.9540 0.2998 -0.0073
vn 0.9553 0.2957 -0.0042
vn 0.9534 0.3019 -0.0008
vn 0.9584 0.2855 -0.0000
vn -0.0025 0.0312 -0.9995
vn 0.0000 -0.7058 -0.7085
vn -0.0012 -0.7076 -0.7066
vn -0.0052 0.0265 -0.9996
vn 0.9193 -0.3936 0.0012
vn 0.9231 -0.3845 0.0097
vn 0.9191 -0.3939 0.0018
vn 0.9047 -0.4260 0.0004
vn -0.9920 -0.1107 0.0608
vn -0.8237 0.4986 -0.2701
vn -0.8543 0.5196 -0.0136
vn -0.8554 -0.5180 0.0010
vn -0.9226 -0.3855 0.0093
vn -0.9181 -0.3963 0.0008
vn -0.9221 -0.3867 0.0098
vn -0.9178 -0.3970 0.0018
vn -0.9034 -0.4289 0.0004
vn 0.8371 0.4827 -0.2575
vn 0.0000 1.0000 -0.0028
vn -0.0000 0.9999 -0.0142
vn 0.0000 -1.0000 0.0046
vn -0.0000 -0.9997 0.0253
vn -0.9550 0.2964 -0.0068
vn -0.8252 0.5621 0.0555
vn -0.8553 -0.5179 0.0125
vn 0.0199 0.9998 -0.0023
vn -0.0661 0.9977 -0.0145
vn -0.0832 -0.9964 0.0149
vn -0.0033 -0.0095 0.9999
vn 0.8660 -0.4997 0.0187
vn 0.8685 -0.4958 0.0045
vn 0.8683 -0.4961 0.0006
vn 0.8688 -0.4951 0.0011
vn 0.8691 -0.4946 0.0003
vn 0.8692 -0.4945 0.0001
vn 0.8682 0.4962 -0.0004
vn 0.8686 0.4955 -0.0006
vn 0.8628 0.5054 -0.0115
vn 0.8690 0.4947 -0.0002
vn 0.8677 0.4971 -0.0028
vn 0.8692 0.4945 -0.0000
vn 0.8686 -0.4954 0.0113
vn 0.8691 -0.4947 0.0028
vn 0.8683 -0.4960 0.0004
vn 0.8690 -0.4948 0.0006
vn 0.8691 -0.4946 0.0002
vn 0.8692 -0.4945 0.0000
vn 0.8683 0.4961 -0.0003
vn 0.8688 0.4952 -0.0001
vn 0.8655 0.5010 -0.0043
vn 0.8691 0.4947 -0.0000
vn 0.8683 0.4961 -0.0011
vn -0.8857 0.4643 -0.0080
vn -0.8869 0.4619 0.0024
vn -0.8867 -0.4623 0.0019
vn -0.8891 -0.4578 0.0005
vn -0.8896 -0.4567 0.0001
vn -0.8904 0.4551 -0.0000
vn -0.8862 0.4633 -0.0093
vn -0.8899 0.4562 -0.0001
vn -0.8903 0.4553 -0.0000
vn -0.8898 -0.4564 0.0001
vn -0.8881 0.4597 -0.0006
vn -0.8839 -0.4676 0.0068
vn -0.8877 -0.4604 -0.0073
vn -0.8888 0.4583 -0.0024
vn -0.8873 -0.4612 0.0033
vn -0.8892 -0.4575 0.0008
vn -0.8897 -0.4566 0.0002
vn -0.8904 0.4551 -0.0001
vn -0.8900 0.4560 -0.0005
vn -0.8903 0.4553 -0.0001
vn -0.8886 0.4587 -0.0020
vn -0.8836 -0.4682 0.0061
vn -0.8893 -0.4572 -0.0029
vn 0.0000 0.9663 0.2576
vn -0.0010 -1.0000 0.0026
vn 0.8266 -0.5599 -0.0580
vn 0.8284 0.5575 -0.0548
vn -0.8524 -0.5229 -0.0025
vn -0.8533 0.5211 -0.0149
vn 0.9545 0.2982 -0.0045
vn 0.9551 0.2962 -0.0025
vn 0.9562 0.2928 -0.0012
vn 0.9570 0.2902 -0.0006
vn 0.9576 0.2883 -0.0003
vn 0.9579 0.2871 -0.0002
vn 0.9581 0.2864 -0.0001
vn 0.9582 0.2860 -0.0000
vn 0.9583 0.2857 -0.0000
vn 0.9583 0.2856 -0.0000
vn 0.9187 -0.3946 0.0148
vn 0.9021 -0.4316 0.0001
vn 0.9021 -0.4315 0.0001
vn 0.9163 -0.4003 0.0073
vn 0.9123 -0.4096 0.0037
vn 0.9025 -0.4307 0.0001
vn 0.9036 -0.4285 0.0003
vn 0.9067 -0.4218 0.0009
vn 0.9077 -0.4197 0.0010
vn 0.9054 -0.4246 0.0005
vn -0.9173 -0.3982 0.0058
vn -0.9175 -0.3978 0.0059
vn -0.8893 -0.4574 -0.0073
vn -0.9252 -0.3795 0.0055
vn -0.9160 -0.4012 0.0028
vn -0.9008 -0.4342 0.0001
vn -0.9106 -0.4134 0.0017
vn -0.9016 -0.4325 0.0002
vn -0.9055 -0.4244 0.0007
vn -0.8940 0.4480 -0.0000
vn -0.8941 0.4480 -0.0000
vn -0.8941 0.4478 -0.0000
vn -0.8943 0.4474 -0.0001
vn -0.8948 0.4465 -0.0001
vn -0.8958 0.4444 -0.0003
vn -0.8982 0.4395 -0.0006
vn -0.9027 0.4302 -0.0011
vn -0.9128 0.4084 -0.0022
vn -0.9286 0.3711 -0.0039
vn 0.0290 0.9996 -0.0001
vn -0.0095 0.9993 -0.0375
vn 0.0289 0.9996 -0.0001
vn 0.0006 0.9998 -0.0183
vn 0.0104 0.9999 -0.0091
vn 0.0215 0.9998 -0.0022
vn 0.0238 0.9997 -0.0011
vn 0.0267 0.9996 -0.0006
vn 0.0283 0.9996 -0.0003
vn 0.0248 0.9997 -0.0010
vn -0.0024 1.0000 -0.0002
vn -0.0027 1.0000 -0.0005
vn -0.0036 1.0000 -0.0010
vn -0.0052 1.0000 -0.0018
vn -0.0115 0.9999 -0.0040
vn -0.0216 0.9997 -0.0071
vn 0.0844 0.9963 0.0158
vn -0.0681 0.9976 -0.0148
vn -0.0498 0.9987 -0.0144
vn -0.0016 -1.0000 0.0000
vn -0.0017 -1.0000 0.0001
vn -0.0019 -1.0000 0.0001
vn -0.0022 -1.0000 0.0002
vn -0.0032 -1.0000 0.0005
vn -0.0051 -1.0000 0.0010
vn -0.0100 -0.9999 0.0021
vn -0.0199 -0.9998 0.0041
vn -0.0439 -0.9990 0.0085
usemtl Material.008
s off
f 13/1/1 27/2/1 9/3/1
f 28/4/2 9/3/2 27/2/2
f 10/5/3 24/6/3 27/2/3
f 13/1/4 10/5/4 27/2/4
usemtl Material.007
f 8/7/5 12/8/5 7/9/5
f 4/10/6 11/11/6 8/7/6
f 8/7/7 13/1/7 12/8/7
f 11/11/8 10/5/8 13/1/8
f 12/8/9 13/1/9 9/3/9
f 21/12/10 15/13/10 14/14/10
f 2/15/11 1/16/11 98/17/11
f 16/18/12 98/17/12 14/14/12
f 23/19/13 29/20/13 7/9/13
f 19/21/14 5/22/14 6/23/14
f 5/22/15 19/21/15 17/24/15
f 3/25/16 4/26/16 15/27/16
f 15/13/17 4/26/17 20/28/17
f 15/13/18 25/29/18 24/6/18
f 14/14/19 15/13/19 16/18/19
f 4/10/20 3/25/20 11/11/20
f 11/11/21 21/12/21 10/5/21
f 11/11/22 3/25/22 21/12/22
f 21/12/23 1/16/23 10/5/23
f 50/30/24 10/5/24 1/16/24
f 4/10/25 8/31/25 20/28/25
f 18/32/26 22/33/26 7/34/26
f 7/9/27 22/33/27 8/35/27
f 20/36/28 8/31/28 22/37/28
f 23/19/29 12/8/29 9/3/29
f 12/8/30 23/19/30 7/9/30
f 23/19/31 9/3/31 5/22/31
f 5/22/32 45/38/32 43/39/32
f 20/36/33 22/40/33 25/29/33
f 22/40/34 27/2/34 25/29/34
f 25/29/35 27/2/35 24/6/35
f 26/41/36 28/4/36 27/2/36
f 22/40/37 18/32/37 26/41/37
f 26/41/38 29/20/38 28/4/38
f 26/41/39 18/32/39 29/20/39
f 29/20/40 17/24/40 28/4/40
f 76/42/41 80/43/41 17/24/41
f 8/7/42 11/11/42 13/1/42
f 14/14/43 1/16/43 21/12/43
f 21/12/44 3/25/44 15/13/44
f 23/19/45 5/22/45 17/24/45
f 17/24/45 29/20/45 23/19/45
f 29/20/46 18/32/46 7/9/46
f 66/44/47 16/18/47 15/13/47
f 15/13/48 20/36/48 25/29/48
f 22/40/49 26/41/49 27/2/49
f 41/45/50 43/39/50 19/21/50
f 65/46/51 9/3/51 64/47/51
f 30/48/52 2/15/52 24/6/52
f 98/17/53 99/49/53 2/15/53
f 31/50/54 57/51/54 6/23/54
f 35/52/55 55/53/55 33/54/55
f 39/55/56 53/56/56 37/57/56
f 43/39/57 61/58/57 41/45/57
f 47/59/58 59/60/58 45/38/58
f 51/61/59 62/62/59 49/63/59
f 54/64/60 38/65/60 53/56/60
f 52/66/61 42/67/61 61/58/61
f 58/68/62 30/48/62 57/51/62
f 60/69/63 46/70/63 59/60/63
f 56/71/64 34/72/64 55/53/64
f 63/73/65 50/30/65 62/62/65
f 31/50/66 58/68/66 57/51/66
f 35/52/67 56/71/67 55/53/67
f 39/55/68 54/64/68 53/56/68
f 43/39/69 52/66/69 61/58/69
f 47/59/70 60/69/70 59/60/70
f 51/61/71 63/73/71 62/62/71
f 54/64/72 40/74/72 38/65/72
f 52/66/73 44/75/73 42/67/73
f 58/68/74 32/76/74 30/48/74
f 60/69/75 48/77/75 46/70/75
f 56/71/76 36/78/76 34/72/76
f 63/73/65 10/5/65 50/30/65
f 66/44/77 94/79/77 96/80/77
f 68/81/78 95/82/78 97/83/78
f 73/84/79 93/85/79 91/86/79
f 75/87/80 87/88/80 92/89/80
f 80/43/81 89/90/81 86/91/81
f 88/92/82 83/93/82 85/94/82
f 66/44/83 96/80/83 16/18/83
f 87/88/84 77/95/84 78/96/84
f 89/90/85 79/97/85 81/98/85
f 90/99/86 28/4/86 84/100/86
f 93/85/87 71/101/87 72/102/87
f 94/79/88 64/47/88 65/46/88
f 95/82/89 70/103/89 69/104/89
f 68/81/90 97/83/90 67/105/90
f 73/84/91 91/86/91 74/106/91
f 75/87/92 92/89/92 76/42/92
f 80/43/93 86/91/93 82/107/93
f 88/92/94 85/94/94 90/99/94
f 87/88/95 78/96/95 92/89/95
f 89/90/96 81/98/96 86/91/96
f 90/99/86 84/100/86 88/92/86
f 93/85/97 72/102/97 91/86/97
f 94/79/98 65/46/98 96/80/98
f 95/82/99 69/104/99 97/83/99
f 1/16/100 14/14/100 98/17/100
f 99/49/101 24/6/101 2/15/101
f 13/1/102 100/108/102 9/3/102
f 100/108/103 13/1/103 10/5/103
f 27/2/104 28/4/104 101/109/104
f 101/109/105 24/6/105 27/2/105
f 1/16/106 2/15/106 30/48/106
f 30/48/107 32/76/107 1/16/107
f 32/76/108 34/72/108 1/16/108
f 34/72/109 36/78/109 1/16/109
f 36/78/110 38/65/110 1/16/110
f 38/65/111 40/74/111 1/16/111
f 40/74/112 42/67/112 1/16/112
f 42/67/113 44/75/113 1/16/113
f 44/75/114 46/70/114 1/16/114
f 46/70/115 48/77/115 1/16/115
f 48/77/24 50/30/24 1/16/24
f 31/50/116 6/23/116 5/22/116
f 5/22/117 9/3/117 51/61/117
f 5/22/118 51/61/118 49/63/118
f 33/54/119 31/50/119 5/22/119
f 35/52/120 33/54/120 5/22/120
f 5/22/121 49/63/121 47/59/121
f 5/22/122 47/59/122 45/38/122
f 37/57/123 35/52/123 5/22/123
f 43/39/124 41/45/124 5/22/124
f 41/45/125 39/55/125 5/22/125
f 39/55/125 37/57/125 5/22/125
f 17/24/126 19/21/126 65/46/126
f 65/46/126 64/47/126 17/24/126
f 64/47/127 69/104/127 17/24/127
f 69/104/128 70/103/128 17/24/128
f 70/103/129 73/84/129 17/24/129
f 73/84/130 74/106/130 17/24/130
f 84/100/131 28/4/131 17/24/131
f 82/107/131 84/100/131 17/24/131
f 17/24/132 74/106/132 75/87/132
f 80/43/133 82/107/133 17/24/133
f 17/24/134 75/87/134 76/42/134
f 15/13/135 24/6/135 85/94/135
f 85/94/135 83/93/135 15/13/135
f 83/93/136 81/98/136 15/13/136
f 81/98/137 79/97/137 15/13/137
f 79/97/138 78/96/138 15/13/138
f 78/96/139 77/95/139 15/13/139
f 77/95/140 72/102/140 15/13/140
f 72/102/141 71/101/141 15/13/141
f 71/101/142 68/81/142 15/13/142
f 68/81/143 67/105/143 15/13/143
f 67/105/144 66/44/144 15/13/144
f 9/3/145 19/21/145 51/61/145
f 19/21/146 6/23/146 31/50/146
f 51/61/147 19/21/147 49/63/147
f 31/50/148 33/54/148 19/21/148
f 33/54/149 35/52/149 19/21/149
f 35/52/150 37/57/150 19/21/150
f 37/57/151 39/55/151 19/21/151
f 39/55/151 41/45/151 19/21/151
f 47/59/152 19/21/152 45/38/152
f 47/59/153 49/63/153 19/21/153
f 43/39/154 45/38/154 19/21/154
f 9/3/155 28/4/155 84/100/155
f 84/100/155 82/107/155 9/3/155
f 82/107/156 80/43/156 9/3/156
f 80/43/157 76/42/157 9/3/157
f 76/42/158 75/87/158 9/3/158
f 75/87/159 74/106/159 9/3/159
f 74/106/160 73/84/160 9/3/160
f 70/103/161 69/104/161 9/3/161
f 69/104/162 64/47/162 9/3/162
f 73/84/163 70/103/163 9/3/163
f 19/21/51 9/3/51 65/46/51
f 24/6/164 10/5/164 50/30/164
f 50/30/164 48/77/164 24/6/164
f 48/77/164 46/70/164 24/6/164
f 46/70/165 44/75/165 24/6/165
f 44/75/166 42/67/166 24/6/166
f 42/67/167 40/74/167 24/6/167
f 40/74/168 38/65/168 24/6/168
f 38/65/169 36/78/169 24/6/169
f 36/78/170 34/72/170 24/6/170
f 34/72/171 32/76/171 24/6/171
f 32/76/172 30/48/172 24/6/172
f 98/17/53 16/18/53 99/49/53
f 99/49/101 16/18/101 24/6/101
