# Blender v2.80 (sub 74) OBJ File: ''
# www.blender.org
mtllib Lvl1Turret_Arm.mtl
o Cube.004_Cube.003
v 1.384310 -1.498429 0.034340
v 1.955113 0.152933 -4.087979
v 1.384310 -0.952594 0.252996
v 1.955113 0.698768 -3.869323
v 1.194901 -1.498429 0.034340
v 1.765703 0.152933 -4.087979
v 1.194901 -0.952594 0.252996
v 1.765704 0.698768 -3.869323
v 1.955113 0.317585 -4.181424
v 1.955113 0.644167 -4.050598
v 1.765704 0.644167 -4.050598
v 1.765704 0.317585 -4.181424
v 1.384310 -1.090894 0.350175
v 1.384310 -1.465469 0.200124
v 1.194901 -1.090894 0.350175
v 1.194901 -1.465469 0.200124
v 1.955113 -0.226108 -3.141772
v 1.955113 0.319727 -2.923116
v 1.765703 0.319727 -2.923116
v 1.765703 -0.226108 -3.141772
v 3.937961 -0.952154 0.253038
v 3.367159 0.697462 -3.869981
v 3.937961 -1.498082 0.034613
v 3.367159 0.151534 -4.088406
v 4.127370 -0.952154 0.253038
v 3.556568 0.697462 -3.869981
v 4.127370 -1.498082 0.034613
v 3.556569 0.151534 -4.088406
v 3.367159 0.642783 -4.051232
v 3.367159 0.316146 -4.181920
v 3.556568 0.316146 -4.181920
v 3.556568 0.642783 -4.051232
v 3.937961 -1.465052 0.200383
v 3.937961 -1.090413 0.350276
v 4.127370 -1.465052 0.200383
v 4.127370 -1.090413 0.350276
v 3.367159 0.318821 -2.923613
v 3.367159 -0.227107 -3.142038
v 3.556568 -0.227107 -3.142038
v 3.556568 0.318821 -2.923613
v 1.863980 0.364883 -4.009136
v 3.523891 0.364884 -4.009136
v 1.863980 0.262898 -3.960022
v 3.523891 0.262898 -3.960022
v 1.863980 0.237709 -3.849665
v 3.523891 0.237709 -3.849664
v 1.863980 0.308285 -3.761165
v 3.523891 0.308286 -3.761165
v 1.863980 0.421481 -3.761165
v 3.523891 0.421481 -3.761165
v 1.863979 0.492057 -3.849665
v 3.523891 0.492057 -3.849664
v 1.863980 0.466869 -3.960022
v 3.523891 0.466869 -3.960022
vt 0.500000 0.000000
vt 0.625000 0.000000
vt 0.625000 0.250000
vt 0.500000 0.250000
vt 0.625000 0.500000
vt 0.500000 0.500000
vt 0.625000 0.750000
vt 0.500000 0.750000
vt 0.625000 1.000000
vt 0.500000 1.000000
vt 0.375000 0.000000
vt 0.375000 0.250000
vt 0.375000 0.250000
vt 0.375000 0.000000
vt 0.625000 0.250000
vt 0.625000 0.500000
vt 0.875000 0.500000
vt 0.875000 0.750000
vt 0.625000 0.750000
vt 0.625000 1.000000
vt 0.125000 0.500000
vt 0.375000 0.500000
vt 0.375000 0.750000
vt 0.125000 0.750000
vt 0.375000 0.500000
vt 0.375000 0.750000
vt 0.375000 1.000000
vt 0.375000 1.000000
vt 0.500000 0.000000
vt 0.625000 0.000000
vt 0.625000 0.250000
vt 0.500000 0.250000
vt 0.625000 0.500000
vt 0.500000 0.500000
vt 0.625000 0.750000
vt 0.500000 0.750000
vt 0.625000 1.000000
vt 0.500000 1.000000
vt 0.375000 0.000000
vt 0.375000 0.250000
vt 0.375000 0.250000
vt 0.375000 0.000000
vt 0.625000 0.250000
vt 0.625000 0.500000
vt 0.875000 0.500000
vt 0.875000 0.750000
vt 0.625000 0.750000
vt 0.625000 1.000000
vt 0.125000 0.500000
vt 0.375000 0.500000
vt 0.375000 0.750000
vt 0.125000 0.750000
vt 0.375000 0.500000
vt 0.375000 0.750000
vt 0.375000 1.000000
vt 0.375000 1.000000
vt 1.000000 0.500000
vt 1.000000 1.000000
vt 0.857143 1.000000
vt 0.857143 0.500000
vt 0.714286 1.000000
vt 0.714286 0.500000
vt 0.571429 1.000000
vt 0.571429 0.500000
vt 0.428571 1.000000
vt 0.428571 0.500000
vt 0.285714 1.000000
vt 0.285714 0.500000
vt 0.437640 0.399638
vt 0.250000 0.490000
vt 0.062360 0.399638
vt 0.016017 0.196595
vt 0.145868 0.033767
vt 0.354132 0.033767
vt 0.483983 0.196595
vt 0.142857 1.000000
vt 0.142857 0.500000
vt 0.000000 1.000000
vt 0.000000 0.500000
vt 0.750000 0.490000
vt 0.937640 0.399638
vt 0.983983 0.196595
vt 0.854132 0.033767
vt 0.645868 0.033767
vt 0.516017 0.196595
vt 0.562360 0.399638
vn 1.0000 -0.0000 0.0000
vn 0.0000 0.9283 0.3719
vn -1.0000 0.0000 -0.0000
vn 0.0000 -0.9283 -0.3719
vn 0.0000 0.9575 -0.2884
vn 0.0000 0.3719 -0.9283
vn -0.0000 -0.4936 -0.8697
vn -0.0000 -0.3719 0.9283
vn -0.0000 -0.9808 0.1950
vn -0.0000 0.5749 0.8182
vn -0.9864 0.0612 -0.1528
vn 0.9864 -0.0612 0.1528
vn 0.0000 -0.9284 -0.3715
vn 0.0000 0.9284 0.3715
vn 0.0000 -0.4939 -0.8695
vn 0.0000 0.3715 -0.9284
vn 0.0000 0.9574 -0.2888
vn -0.0000 -0.3715 0.9284
vn -0.0000 0.5753 0.8180
vn -0.0000 -0.9807 0.1954
vn 0.9864 0.0611 -0.1528
vn -0.9864 -0.0611 0.1528
vn 0.0000 -0.4339 -0.9010
vn 0.0000 -0.9749 -0.2225
vn -0.0000 -0.7818 0.6235
vn -0.0000 0.0000 1.0000
vn -0.0000 0.7818 0.6235
vn -0.0000 0.9749 -0.2225
vn -0.0000 0.4339 -0.9010
usemtl Material.002
s off
f 17/1/1 2/2/1 4/3/1 18/4/1
f 18/4/2 4/3/2 8/5/2 19/6/2
f 19/6/3 8/5/3 6/7/3 20/8/3
f 20/8/4 6/7/4 2/9/4 17/10/4
f 1/11/1 3/12/1 13/13/1 14/14/1
f 8/5/5 4/3/5 10/15/5 11/16/5
f 11/16/6 10/17/6 9/18/6 12/19/6
f 6/7/3 8/5/3 11/16/3 12/19/3
f 4/3/1 2/9/1 9/18/1 10/15/1
f 2/9/7 6/7/7 12/19/7 9/20/7
f 13/21/8 15/22/8 16/23/8 14/24/8
f 7/25/3 5/26/3 16/23/3 15/22/3
f 5/26/9 1/27/9 14/28/9 16/23/9
f 3/12/10 7/25/10 15/22/10 13/13/10
f 5/26/4 20/8/4 17/10/4 1/27/4
f 7/25/11 19/6/11 20/8/11 5/26/11
f 3/12/2 18/4/2 19/6/2 7/25/2
f 1/11/12 17/1/12 18/4/12 3/12/12
f 37/29/3 22/30/3 24/31/3 38/32/3
f 38/32/13 24/31/13 28/33/13 39/34/13
f 39/34/1 28/33/1 26/35/1 40/36/1
f 40/36/14 26/35/14 22/37/14 37/38/14
f 21/39/3 23/40/3 33/41/3 34/42/3
f 28/33/15 24/31/15 30/43/15 31/44/15
f 31/44/16 30/45/16 29/46/16 32/47/16
f 26/35/1 28/33/1 31/44/1 32/47/1
f 24/31/3 22/37/3 29/46/3 30/43/3
f 22/37/17 26/35/17 32/47/17 29/48/17
f 33/49/18 35/50/18 36/51/18 34/52/18
f 27/53/1 25/54/1 36/51/1 35/50/1
f 25/54/19 21/55/19 34/56/19 36/51/19
f 23/40/20 27/53/20 35/50/20 33/41/20
f 25/54/14 40/36/14 37/38/14 21/55/14
f 27/53/21 39/34/21 40/36/21 25/54/21
f 23/40/13 38/32/13 39/34/13 27/53/13
f 21/39/22 37/29/22 38/32/22 23/40/22
usemtl Material.001
f 41/57/23 42/58/23 44/59/23 43/60/23
f 43/60/24 44/59/24 46/61/24 45/62/24
f 45/62/25 46/61/25 48/63/25 47/64/25
f 47/64/26 48/63/26 50/65/26 49/66/26
f 49/66/27 50/65/27 52/67/27 51/68/27
f 44/69/1 42/70/1 54/71/1 52/72/1 50/73/1 48/74/1 46/75/1
f 51/68/28 52/67/28 54/76/28 53/77/28
f 53/77/29 54/76/29 42/78/29 41/79/29
f 41/80/3 43/81/3 45/82/3 47/83/3 49/84/3 51/85/3 53/86/3
