# Blender v2.80 (sub 74) OBJ File: 'LaserRip.blend'
# www.blender.org
mtllib Lvl1Turret_BaseTop.mtl
o Cube.002
v 2.662933 -2.398141 -1.356039
v 3.459993 -2.398141 -1.097059
v 3.952603 -2.398141 -0.419039
v 3.952603 -2.398141 0.419039
v 3.459993 -2.398141 1.097059
v 2.662933 -2.398141 1.356039
v 1.865873 -2.398141 1.097059
v 1.373263 -2.398141 0.419039
v 1.373263 -2.398141 -0.419039
v 1.865873 -2.398141 -1.097059
v 3.236245 -0.753713 -0.789096
v 2.662933 -0.753713 -0.975376
v 3.590571 -0.753713 -0.301408
v 3.590571 -0.753713 0.301408
v 3.236245 -0.753713 0.789096
v 2.662933 -0.753713 0.975376
v 2.089621 -0.753713 0.789096
v 1.735295 -0.753713 0.301408
v 1.735295 -0.753713 -0.301408
v 2.089622 -0.753713 -0.789096
v 3.459993 -0.906133 -1.097059
v 2.662933 -0.906133 -1.356039
v 3.952603 -0.906133 -0.419039
v 3.952603 -0.906133 0.419039
v 3.459993 -0.906133 1.097059
v 2.662933 -0.906133 1.356039
v 1.865873 -0.906133 1.097059
v 1.373263 -0.906133 0.419039
v 1.373263 -0.906133 -0.419039
v 1.865873 -0.906133 -1.097059
vt 1.000000 0.500000
vt 1.000000 1.000000
vt 0.900000 1.000000
vt 0.900000 0.500000
vt 0.800000 1.000000
vt 0.800000 0.500000
vt 0.700000 1.000000
vt 0.700000 0.500000
vt 0.600000 1.000000
vt 0.600000 0.500000
vt 0.500000 1.000000
vt 0.500000 0.500000
vt 0.400000 1.000000
vt 0.400000 0.500000
vt 0.300000 1.000000
vt 0.300000 0.500000
vt 0.200000 1.000000
vt 0.200000 0.500000
vt 0.100000 1.000000
vt 0.100000 0.500000
vt -0.000000 1.000000
vt -0.000000 0.500000
vt 0.750000 0.490000
vt 0.891068 0.444164
vt 0.978254 0.324164
vt 0.978254 0.175836
vt 0.891068 0.055836
vt 0.750000 0.010000
vt 0.608931 0.055836
vt 0.521746 0.175836
vt 0.521746 0.324164
vt 0.608932 0.444164
vt 0.651013 1.000000
vt 0.248987 1.000000
vt 0.190899 1.000000
vt 0.251414 1.000000
vt 0.327777 1.000000
vt 0.408859 1.000000
vt 0.491140 1.000000
vt 0.572223 1.000000
vt 0.648586 1.000000
vt 0.709100 1.000000
vn 0.3090 0.0000 -0.9511
vn 0.8090 0.0000 -0.5878
vn 1.0000 0.0000 0.0000
vn 0.8090 0.0000 0.5878
vn 0.3090 0.0000 0.9511
vn -0.3090 0.0000 0.9511
vn -0.8090 0.0000 0.5878
vn -1.0000 0.0000 0.0000
vn -0.8090 0.0000 -0.5878
vn -0.3090 0.0000 -0.9511
vn 0.0000 -1.0000 0.0000
vn 0.0000 1.0000 0.0000
vn 0.1199 0.9216 -0.3690
vn 0.3139 0.9216 -0.2281
vn 0.3880 0.9216 0.0000
vn 0.3139 0.9216 0.2281
vn 0.1199 0.9216 0.3690
vn -0.1199 0.9216 0.3690
vn -0.3139 0.9216 0.2281
vn -0.3880 0.9216 0.0000
vn -0.3139 0.9216 -0.2281
vn -0.1199 0.9216 -0.3690
usemtl Material.003
s off
f 1/1/1 22/2/1 21/3/1 2/4/1
f 2/4/2 21/3/2 23/5/2 3/6/2
f 3/6/3 23/5/3 24/7/3 4/8/3
f 4/8/4 24/7/4 25/9/4 5/10/4
f 5/10/5 25/9/5 26/11/5 6/12/5
f 6/12/6 26/11/6 27/13/6 7/14/6
f 7/14/7 27/13/7 28/15/7 8/16/7
f 8/16/8 28/15/8 29/17/8 9/18/8
f 9/18/9 29/17/9 30/19/9 10/20/9
f 10/20/10 30/19/10 22/21/10 1/22/10
f 1/23/11 2/24/11 3/25/11 4/26/11 5/27/11 6/28/11 7/29/11 8/30/11 9/31/11 10/32/11
f 11/33/12 12/34/12 20/35/12 19/36/12 18/37/12 17/38/12 16/39/12 15/40/12 14/41/12 13/42/12
f 12/34/13 11/33/13 21/3/13 22/21/13
f 11/33/14 13/42/14 23/5/14 21/3/14
f 13/42/15 14/41/15 24/7/15 23/5/15
f 14/41/16 15/40/16 25/9/16 24/7/16
f 15/40/17 16/39/17 26/11/17 25/9/17
f 16/39/18 17/38/18 27/13/18 26/11/18
f 17/38/19 18/37/19 28/15/19 27/13/19
f 18/37/20 19/36/20 29/17/20 28/15/20
f 19/36/21 20/35/21 30/19/21 29/17/21
f 20/35/22 12/34/22 22/21/22 30/19/22
